<svg width="40" height="40" viewBox="0 0 40 40" fill="none" xmlns="http://www.w3.org/2000/svg">
<g clip-path="url(#clip0_719_931)">
<path d="M20 40C30.9995 40 40 31.039 40 20C40 8.95892 30.9995 0 20 0C8.95892 0 3.62058e-07 8.961 3.62058e-07 20C-0.00207972 31.0411 8.95892 40 20 40Z" fill="#00993F"/>
<path d="M20.0003 6.7998C26.6004 6.7998 31.0809 11.8794 31.0809 17.3604C31.0809 19.5611 30.6004 21.481 29.4813 23.8814C22.9207 23.8814 21.7205 28.2413 21.4418 31.1617L21.2421 33.2023H18.7626L18.5629 31.1617C18.2821 28.2413 17.0819 23.8814 10.5234 23.8814C9.40433 21.481 8.92383 19.5611 8.92383 17.3604C8.91967 11.8794 13.4002 6.7998 20.0003 6.7998Z" fill="white"/>
</g>
<defs>
<clipPath id="clip0_719_931">
<rect width="40" height="40" fill="white"/>
</clipPath>
</defs>
</svg>
