<svg width="40" height="40" viewBox="0 0 40 40" fill="none" xmlns="http://www.w3.org/2000/svg">
<g clip-path="url(#clip0_719_917)">
<path d="M39.5748 20.4501C39.5748 19.1334 39.4581 17.8834 39.2581 16.6667H20.4248V24.1834H31.2081C30.7248 26.6501 29.3081 28.7334 27.2081 30.1501V35.1501H33.6415C37.4081 31.6667 39.5748 26.5334 39.5748 20.4501Z" fill="#4285F4"/>
<path d="M20.4252 40C25.8252 40 30.3419 38.2 33.6419 35.15L27.2085 30.15C25.4085 31.35 23.1252 32.0833 20.4252 32.0833C15.2085 32.0833 10.7919 28.5667 9.20853 23.8167H2.5752V28.9667C5.85853 35.5 12.6085 40 20.4252 40Z" fill="#34A853"/>
<path d="M9.20814 23.8168C8.79147 22.6168 8.5748 21.3334 8.5748 20.0001C8.5748 18.6668 8.80814 17.3834 9.20814 16.1834V11.0334H2.5748C1.20814 13.7334 0.424805 16.7668 0.424805 20.0001C0.424805 23.2334 1.20814 26.2668 2.5748 28.9668L9.20814 23.8168Z" fill="#FBBC05"/>
<path d="M20.4252 7.91667C23.3752 7.91667 26.0085 8.93334 28.0919 10.9167L33.7919 5.21667C30.3419 1.98333 25.8252 0 20.4252 0C12.6085 0 5.85853 4.5 2.5752 11.0333L9.20853 16.1833C10.7919 11.4333 15.2085 7.91667 20.4252 7.91667Z" fill="#EA4335"/>
</g>
<defs>
<clipPath id="clip0_719_917">
<rect width="40" height="40" fill="white"/>
</clipPath>
</defs>
</svg>
