<svg width="60" height="60" viewBox="0 0 60 60" fill="none" xmlns="http://www.w3.org/2000/svg">
<path d="M28.2111 51.6056L29.1056 49.8167H29.1056L28.2111 51.6056ZM31.7889 51.6056L30.8944 49.8167H30.8944L31.7889 51.6056ZM33.8944 50.5528L33 48.7639L33.8944 50.5528ZM35.027 48.7643L33.029 48.6768L35.027 48.7643ZM34.838 49.9267L36.5158 51.0151L34.838 49.9267ZM24.973 48.7643L22.9749 48.8518L24.973 48.7643ZM26.1056 50.5528L25.2111 52.3416L26.1056 50.5528ZM25.162 49.9267L23.4842 51.0151L25.162 49.9267ZM21.7444 37.5258L20.6422 39.1947L21.7444 37.5258ZM22.503 38.3895L20.6799 39.2118L22.503 38.3895ZM22.2388 37.8995L20.7161 39.1962L22.2388 37.8995ZM38.2556 37.5258L39.3578 39.1947L38.2556 37.5258ZM37.497 38.3895L35.6738 37.5673L37.497 38.3895ZM37.7612 37.8995L39.2839 39.1962L37.7612 37.8995ZM43 25C43 29.5343 40.6802 33.5277 37.1534 35.8569L39.3578 39.1947C43.958 36.1566 47 30.934 47 25H43ZM30 12C37.1797 12 43 17.8203 43 25H47C47 15.6112 39.3888 8 30 8V12ZM17 25C17 17.8203 22.8203 12 30 12V8C20.6112 8 13 15.6112 13 25H17ZM22.8466 35.8569C19.3198 33.5277 17 29.5343 17 25H13C13 30.934 16.042 36.1566 20.6422 39.1947L22.8466 35.8569ZM26.971 48.6768C26.8028 44.8347 25.9034 41.0645 24.3262 37.5673L20.6799 39.2118C22.0484 42.2464 22.8289 45.5179 22.9749 48.8518L26.971 48.6768ZM29.1056 49.8167L27 48.7639L25.2111 52.3416L27.3167 53.3944L29.1056 49.8167ZM30.8944 49.8167C30.3314 50.0982 29.6686 50.0982 29.1056 49.8167L27.3167 53.3944C29.0059 54.239 30.9941 54.239 32.6833 53.3944L30.8944 49.8167ZM33 48.7639L30.8944 49.8167L32.6833 53.3944L34.7889 52.3416L33 48.7639ZM35.6738 37.5673C34.0966 41.0645 33.1972 44.8347 33.029 48.6768L37.0251 48.8518C37.1711 45.5179 37.9516 42.2464 39.3201 39.2118L35.6738 37.5673ZM34.7889 52.3416C35.0193 52.2264 35.3204 52.0783 35.5727 51.9199C35.8585 51.7405 36.2246 51.4641 36.5158 51.0151L33.1601 48.8382C33.2271 48.7349 33.3004 48.6549 33.3629 48.5986C33.4196 48.5474 33.4568 48.5254 33.4462 48.532C33.4341 48.5396 33.3984 48.5608 33.3168 48.6035C33.2351 48.6463 33.1374 48.6952 33 48.7639L34.7889 52.3416ZM33.029 48.6768C33.0219 48.8377 33.0167 48.9544 33.0106 49.0532C33.0045 49.1521 32.9993 49.2002 32.9965 49.2208C32.9938 49.2403 32.9976 49.2015 33.0199 49.1313C33.0446 49.0535 33.088 48.9494 33.1601 48.8382L36.5158 51.0151C36.8144 50.5549 36.914 50.0945 36.9592 49.7659C37.0002 49.4679 37.0131 49.1254 37.0251 48.8518L33.029 48.6768ZM22.9749 48.8518C22.9869 49.1254 22.9998 49.4679 23.0408 49.7659C23.086 50.0945 23.1856 50.5549 23.4842 51.0151L26.8399 48.8382C26.912 48.9494 26.9554 49.0535 26.9801 49.1313C27.0024 49.2015 27.0062 49.2403 27.0035 49.2208C27.0007 49.2002 26.9955 49.1521 26.9894 49.0532C26.9833 48.9544 26.9781 48.8377 26.971 48.6768L22.9749 48.8518ZM27 48.7639C26.8626 48.6952 26.7649 48.6463 26.6832 48.6035C26.6016 48.5608 26.5659 48.5396 26.5538 48.532C26.5432 48.5254 26.5804 48.5474 26.6371 48.5986C26.6996 48.6549 26.7729 48.7349 26.8399 48.8382L23.4842 51.0151C23.7754 51.4641 24.1415 51.7405 24.4273 51.9199C24.6796 52.0783 24.9807 52.2264 25.2111 52.3416L27 48.7639ZM20.6422 39.1947C20.7117 39.2405 20.7614 39.2734 20.8033 39.3017C20.8451 39.3298 20.8647 39.3438 20.8727 39.3497C20.8801 39.3551 20.8639 39.3437 20.8358 39.3188C20.8053 39.2919 20.7627 39.251 20.7161 39.1962L23.7615 36.6028C23.4403 36.2256 23.0046 35.9612 22.8466 35.8569L20.6422 39.1947ZM24.3262 37.5673C24.2548 37.4089 24.0786 36.9753 23.7615 36.6028L20.7161 39.1962C20.6977 39.1746 20.6804 39.1528 20.6643 39.131C20.6482 39.1093 20.6345 39.0893 20.6232 39.0717C20.6009 39.0372 20.5891 39.0145 20.5886 39.0137C20.5883 39.0131 20.5901 39.0164 20.5943 39.0251C20.5985 39.0338 20.6044 39.0461 20.6125 39.0635C20.6205 39.0809 20.6299 39.1014 20.6414 39.1266C20.6529 39.1519 20.6653 39.1794 20.6799 39.2118L24.3262 37.5673ZM37.1534 35.8569C36.9954 35.9612 36.5597 36.2256 36.2385 36.6028L39.2839 39.1962C39.2373 39.251 39.1947 39.2919 39.1642 39.3188C39.1361 39.3437 39.1199 39.3551 39.1273 39.3497C39.1353 39.3438 39.1549 39.3298 39.1967 39.3017C39.2386 39.2734 39.2883 39.2405 39.3578 39.1947L37.1534 35.8569ZM39.3201 39.2118C39.3347 39.1794 39.3471 39.1519 39.3586 39.1266C39.3701 39.1014 39.3795 39.0809 39.3875 39.0635C39.3956 39.0461 39.4015 39.0338 39.4057 39.0251C39.4099 39.0164 39.4117 39.0131 39.4114 39.0137C39.4109 39.0145 39.3991 39.0372 39.3768 39.0717C39.3655 39.0893 39.3518 39.1093 39.3357 39.131C39.3196 39.1528 39.3023 39.1746 39.2839 39.1962L36.2385 36.6028C35.9214 36.9753 35.7452 37.4089 35.6738 37.5673L39.3201 39.2118Z" fill="#DA9836"/>
<path d="M37.4806 40V40C32.9529 43.0264 27.0477 43.0264 22.52 40V40" stroke="#DA9836" stroke-width="4"/>
</svg>
