<svg width="120" height="36" viewBox="0 0 120 36" fill="none" xmlns="http://www.w3.org/2000/svg">
<path d="M42.6696 28.7258C42.6696 29.2005 42.5913 29.62 42.4349 29.9852C42.283 30.3494 42.0413 30.6553 41.7099 30.905C41.3784 31.1537 40.9504 31.3423 40.4256 31.4715C39.9055 31.5959 39.2771 31.6591 38.5407 31.6591H34.2807V35.3108H33.4175V25.8074H38.5407C39.2771 25.8074 39.9055 25.8715 40.4256 26.0008C40.9504 26.1252 41.3784 26.3097 41.7099 26.5545C42.0413 26.7983 42.283 27.1033 42.4349 27.4674C42.5913 27.8316 42.6696 28.2511 42.6696 28.7258ZM41.7789 28.7258C41.7789 28.2738 41.703 27.9096 41.551 27.6333C41.4038 27.3559 41.1736 27.1447 40.8606 26.9967C40.5522 26.8447 40.1586 26.743 39.6799 26.6927C39.2058 26.6414 38.642 26.6167 37.9884 26.6167H34.2807V30.8498H37.9884C38.2415 30.8498 38.5107 30.8517 38.7962 30.8567C39.0862 30.8567 39.3715 30.8429 39.6523 30.8152C39.9331 30.7826 40.2001 30.7294 40.4532 30.6553C40.711 30.5774 40.9366 30.4599 41.1299 30.303C41.3278 30.1461 41.4843 29.9408 41.5994 29.6871C41.7191 29.4335 41.7789 29.1137 41.7789 28.7258Z" fill="#FCFCFC"/>
<path d="M45.0034 35.3108V25.8074H45.8664V34.5015H52.7984V35.3108H45.0034Z" fill="#FCFCFC"/>
<path d="M63.6039 35.3108L62.2995 32.8069H55.8573L54.5523 35.3108H53.6063L58.5707 25.8074H59.5856L64.5498 35.3108H63.6039ZM59.0817 26.6443L56.2784 32.0114H61.8779L59.0817 26.6443Z" fill="#FCFCFC"/>
<path d="M76.0117 34.5568C75.6797 34.695 75.3507 34.8223 75.0236 34.9368C74.7014 35.0522 74.3654 35.1519 74.0157 35.2348C73.6659 35.3177 73.2975 35.3819 72.9113 35.4283C72.525 35.4747 72.1034 35.4974 71.6482 35.4974C71.0866 35.4974 70.5457 35.451 70.0255 35.3592C69.5093 35.2664 69.0285 35.1282 68.5822 34.9437C68.1359 34.7591 67.731 34.5311 67.3674 34.2597C67.0029 33.9824 66.6906 33.6626 66.4275 33.2974C66.1704 32.9332 65.9704 32.5236 65.8275 32.0667C65.6896 31.6097 65.6196 31.1103 65.6196 30.5655C65.6196 30.0217 65.6896 29.5213 65.8275 29.0643C65.9704 28.6084 66.1704 28.1978 66.4275 27.8336C66.6906 27.4694 67.0029 27.1516 67.3674 26.8792C67.731 26.6029 68.1359 26.3719 68.5822 26.1874C69.0285 26.0028 69.5093 25.8646 70.0255 25.7728C70.5408 25.6801 71.0817 25.6337 71.6482 25.6337C72.1034 25.6337 72.525 25.6574 72.9113 25.7037C73.2975 25.7491 73.6659 25.8143 74.0157 25.8972C74.3654 25.9801 74.7014 26.0788 75.0236 26.1943C75.3507 26.3048 75.6797 26.4292 76.0117 26.5683V27.6056C75.7487 27.4398 75.4679 27.2829 75.1694 27.1348C74.8699 26.9878 74.5457 26.8585 74.195 26.7479C73.8502 26.6374 73.4797 26.5496 73.0837 26.4844C72.6876 26.4203 72.2649 26.3877 71.8137 26.3877C70.9024 26.3877 70.1122 26.4874 69.4452 26.6858C68.7773 26.8841 68.2255 27.1654 67.7881 27.5296C67.3556 27.8889 67.0334 28.3271 66.8216 28.8433C66.6147 29.3555 66.5113 29.9289 66.5113 30.5655C66.5113 31.2021 66.6147 31.7765 66.8216 32.2878C67.0334 32.8 67.3556 33.2382 67.7881 33.6024C68.2255 33.9617 68.7773 34.241 69.4452 34.4393C70.1122 34.6328 70.9024 34.7295 71.8137 34.7295C72.2649 34.7295 72.6906 34.6969 73.0906 34.6328C73.4955 34.5686 73.8728 34.4808 74.2236 34.3703C74.5773 34.2597 74.9024 34.1324 75.197 33.9893C75.4955 33.8422 75.7674 33.6873 76.0117 33.5264V34.5568Z" fill="#FCFCFC"/>
<path d="M78.5734 35.3108V25.8074H86.4788V26.6167H79.5123V29.8875H86.1261V30.6899H79.5123V34.5015H86.5822V35.3108H78.5734Z" fill="#FCFCFC"/>
<path d="M3.35945 0.48291V17.1942H0.00250244V0.48291H3.35945ZM11.6429 0.48291L6.23521 8.78129L2.92408 12.9127L2.2825 9.55013L4.42497 5.96943L7.56418 0.48291H11.6429ZM7.77048 17.1942L4.12713 9.51559L6.59039 7.33539L11.7231 17.1942H7.77048Z" fill="#FCFCFC"/>
<path d="M11.8331 0.48291H17.1836C18.2987 0.48291 19.2497 0.674381 20.0364 1.05732C20.8231 1.43928 21.4265 2.0058 21.8466 2.75589C22.2667 3.50598 22.4768 4.43175 22.4768 5.5332C22.4768 6.43627 22.3545 7.20906 22.1101 7.85157C21.8657 8.48619 21.5182 9.01816 21.0675 9.4465C20.6169 9.86793 20.0784 10.2045 19.452 10.4571L18.4324 11.0651H14.0902L14.0787 8.27596H17.0919C17.5502 8.27596 17.9283 8.17628 18.2261 7.9779C18.5317 7.77162 18.757 7.48442 18.9021 7.11727C19.0549 6.74223 19.1313 6.30599 19.1313 5.80856C19.1313 5.28053 19.0625 4.82949 18.9251 4.45444C18.7952 4.0715 18.5851 3.78134 18.2949 3.58197C18.0123 3.3757 17.6419 3.27207 17.1836 3.27207H15.1901V17.1942H11.8331V0.48291ZM19.4062 17.1942L16.3472 9.74555L19.8646 9.73371L22.9923 17.0333V17.1942H19.4062Z" fill="#FCFCFC"/>
<path d="M29.6786 3.46748L26.0926 17.1942H22.5523L27.7653 0.48291H29.9765L29.6786 3.46748ZM32.5086 17.1942L28.8996 3.46748L28.5673 0.48291H30.8129L36.0717 17.1942H32.5086ZM32.6346 10.9615V13.7506H25.1073V10.9615H32.6346Z" fill="#FCFCFC"/>
<path d="M40.7874 13.6243L43.9496 0.48291H47.5701L42.7352 17.1942H40.2948L40.7874 13.6243ZM38.0836 0.48291L41.2343 13.6243L41.7499 17.1942H39.2981L34.4976 0.48291H38.0836Z" fill="#FCFCFC"/>
<path d="M55.7802 11.6278H59.1142C59.0683 12.8822 58.8163 13.9422 58.358 14.8068C57.8997 15.6635 57.2467 16.3139 56.3988 16.758C55.5587 17.2021 54.5428 17.4242 53.3512 17.4242C52.4271 17.4242 51.606 17.2702 50.888 16.9643C50.17 16.6514 49.559 16.1915 49.0548 15.5875C48.5507 14.9825 48.1688 14.2373 47.9091 13.349C47.6571 12.4539 47.531 11.4245 47.531 10.2618V7.42728C47.531 6.26365 47.6647 5.23523 47.9321 4.34006C48.2071 3.44389 48.5965 2.69479 49.1007 2.08978C49.6124 1.47787 50.2273 1.01893 50.9453 0.71297C51.6709 0.399116 52.4882 0.242188 53.3971 0.242188C54.6115 0.242188 55.6274 0.472154 56.4447 0.931091C57.2619 1.39003 57.8921 2.05919 58.335 2.93956C58.7857 3.81203 59.0569 4.87894 59.1485 6.14126H55.803C55.7802 5.34577 55.6885 4.72201 55.528 4.27097C55.3753 3.81203 55.1309 3.49028 54.7949 3.30671C54.4588 3.11524 53.9929 3.0195 53.3971 3.0195C52.9541 3.0195 52.5722 3.10043 52.2514 3.26032C51.9306 3.4133 51.6671 3.66201 51.4609 4.00646C51.2547 4.35091 51.1018 4.80294 51.0025 5.36156C50.9109 5.91919 50.8651 6.6002 50.8651 7.40358V10.2618C50.8651 11.0504 50.9071 11.7235 50.9911 12.2821C51.0751 12.8329 51.2087 13.2839 51.3921 13.6363C51.5754 13.9886 51.8236 14.2442 52.1368 14.4051C52.4576 14.566 52.8624 14.6459 53.3512 14.6459C53.9164 14.6459 54.3709 14.562 54.7147 14.3933C55.066 14.2255 55.3257 13.9235 55.4938 13.4872C55.6617 13.051 55.7572 12.4312 55.7802 11.6278Z" fill="#FCFCFC"/>
<path d="M69.2837 7.25446V10.0318H62.4433V7.25446H69.2837ZM63.395 0.48291V17.1942H60.0374V0.48291H63.395ZM71.7122 0.48291V17.1942H68.3901V0.48291H71.7122Z" fill="#FCFCFC"/>
<path d="M82.8443 14.4168V17.1942H75.5921V14.4168H82.8443ZM76.6344 0.48291V17.1942H73.2778V0.48291H76.6344ZM81.8699 7.25446V9.95182H75.5921V7.25446H81.8699ZM82.8217 0.48291V3.27207H75.5921V0.48291H82.8217Z" fill="#FCFCFC"/>
<path d="M95.2936 0.48291V17.1942H92.0512L86.8148 6.73828V17.1942H83.6306V0.48291H86.8266L92.1084 11.0533V0.48291H95.2936Z" fill="#FCFCFC"/>
<path d="M100.181 0.48291V17.1942H96.8246V0.48291H100.181ZM108.465 0.48291L103.057 8.78129L99.7458 12.9127L99.1044 9.55013L101.246 5.96943L104.386 0.48291H108.465ZM104.592 17.1942L100.949 9.51559L103.412 7.33539L108.545 17.1942H104.592Z" fill="#FCFCFC"/>
<path d="M119.997 7.54176V10.3309C119.997 11.5093 119.852 12.5417 119.562 13.43C119.279 14.3094 118.875 15.0476 118.348 15.6447C117.828 16.2339 117.198 16.6781 116.457 16.9761C115.724 17.2742 114.91 17.4242 114.017 17.4242C113.123 17.4242 112.305 17.2742 111.565 16.9761C110.832 16.6781 110.198 16.2339 109.663 15.6447C109.136 15.0476 108.727 14.3094 108.437 13.43C108.147 12.5417 108.002 11.5093 108.002 10.3309V7.54176C108.002 6.33273 108.143 5.27668 108.426 4.37361C108.708 3.46363 109.117 2.70565 109.651 2.10162C110.186 1.48971 110.82 1.03077 111.554 0.723823C112.287 0.410956 113.1 0.254028 113.994 0.254028C114.888 0.254028 115.7 0.410956 116.434 0.723823C117.167 1.03077 117.801 1.48971 118.336 2.10162C118.871 2.70565 119.279 3.46363 119.562 4.37361C119.852 5.27668 119.997 6.33273 119.997 7.54176ZM116.663 10.3309V7.51906C116.663 6.72258 116.606 6.04552 116.492 5.4869C116.376 4.92137 116.205 4.45849 115.975 4.09825C115.747 3.73899 115.468 3.47449 115.14 3.30671C114.811 3.13794 114.43 3.05405 113.994 3.05405C113.559 3.05405 113.172 3.13794 112.836 3.30671C112.508 3.47449 112.23 3.73899 112 4.09825C111.778 4.45849 111.611 4.92137 111.497 5.4869C111.389 6.04552 111.336 6.72258 111.336 7.51906V10.3309C111.336 11.0958 111.393 11.7502 111.507 12.293C111.622 12.8368 111.794 13.28 112.023 13.6244C112.252 13.9689 112.531 14.2255 112.859 14.3932C113.195 14.5541 113.581 14.6351 114.017 14.6351C114.444 14.6351 114.823 14.5541 115.151 14.3932C115.487 14.2255 115.766 13.9689 115.987 13.6244C116.209 13.28 116.376 12.8368 116.492 12.293C116.606 11.7502 116.663 11.0958 116.663 10.3309Z" fill="#FCFCFC"/>
</svg>
