<svg width="65" height="19" viewBox="0 0 65 19" fill="none" xmlns="http://www.w3.org/2000/svg">
<path d="M23.3365 6.8899V4.76774C23.3365 1.94652 21.7136 0.273767 18.9673 0.273767C16.246 0.273767 14.6731 1.89659 14.6731 4.76774V5.14224C14.6731 7.66386 15.447 8.96212 17.3944 9.73608L18.493 10.1355C20.3904 10.9095 20.8897 11.5337 20.8897 12.8819V13.9305C20.8897 15.2786 20.1907 16.0776 18.9923 16.0776C17.8189 16.0776 17.1198 15.2786 17.1198 13.9305V11.6335H14.6232V13.7557C14.6232 16.6019 16.196 18.2497 18.9673 18.2497C21.7386 18.2497 23.3864 16.5769 23.3864 13.7557V13.2813C23.3864 10.7098 22.6374 9.48641 20.6151 8.71245L19.6165 8.33795C17.6441 7.53903 17.1697 6.91486 17.1697 5.56667V4.59298C17.1697 3.24478 17.8438 2.44585 18.9923 2.44585C20.1408 2.44585 20.8398 3.24478 20.8398 4.59298V6.8899H23.3365ZM32.3104 0.523432H24.0714V2.69552H26.9426V18H29.4392V2.69552H32.3104V0.523432ZM33.3248 0.523432V18H37.4942C40.0408 18 41.9383 16.7517 41.9383 13.6808V4.84264C41.9383 1.79672 40.0408 0.523432 37.4942 0.523432H33.3248ZM35.8215 2.69552H37.4693C38.5179 2.69552 39.4167 3.19485 39.4167 4.81768V13.7058C39.4167 15.3286 38.5179 15.8279 37.4693 15.8279H35.8215V2.69552ZM45.7441 0.498466H43.2475V18H45.7441V10.3602H46.1436L49.3143 18H51.9857L48.1908 9.26172L51.5863 0.498466H48.9149L46.1436 8.16319H45.7441V0.498466ZM52.8537 0.523432V18H55.3504V0.523432H52.8537ZM64.4694 0.523432H56.2304V2.69552H59.1016V18H61.5983V2.69552H64.4694V0.523432Z" fill="white"/>
<path d="M5.02327 17.6028L4.88356 17.9795H5.2853H6.72873H6.92315L6.99077 17.7972L13.2795 0.842308L13.4192 0.465641H13.0175H11.574H11.3796L11.312 0.647927L5.02327 17.6028Z" fill="white" stroke="white" stroke-width="0.558952"/>
<path d="M0.737968 17.6028L0.598258 17.9795H1H2.44343H2.63785L2.70546 17.7972L8.9942 0.842308L9.13391 0.465641H8.73217H7.28874H7.09432L7.0267 0.647927L0.737968 17.6028Z" fill="white" stroke="white" stroke-width="0.558952"/>
</svg>
