<?xml version="1.0"?>
<svg xmlns="http://www.w3.org/2000/svg" xmlns:xlink="http://www.w3.org/1999/xlink" version="1.1" xml:space="preserve">
	<defs>

        <symbol id="loader" width="100%" height="100%" viewBox="22 22 44 44">
            <circle cx="44" cy="44" r="20.2" fill="none" stroke="currentColor" stroke-width="4"></circle>
        </symbol>

        <symbol id="burger" width="100%" height="100%" viewBox="0 0 48 48">
            <path d="M41,14H7a2,2,0,0,1,0-4H41A2,2,0,0,1,41,14Z" fill="currentColor"/>
            <path d="M41,26H7a2,2,0,0,1,0-4H41A2,2,0,0,1,41,26Z" fill="currentColor"/>
            <path d="M41,38H7a2,2,0,0,1,0-4H41A2,2,0,0,1,41,38Z" fill="currentColor"/>
        </symbol>

        <symbol id="success" width="100%" height="100%" viewBox="0 0 68 68">
            <path fill-rule="evenodd" clip-rule="evenodd" d="M34 68C52.7777 68 68 52.7777 68 34C68 15.2223 52.7777 0 34 0C15.2223 0 0 15.2223 0 34C0 52.7777 15.2223 68 34 68ZM49.7552 28.5052C51.4149 26.8455 51.4149 24.1545 49.7552 22.4948C48.0955 20.8351 45.4045 20.8351 43.7448 22.4948L29.75 36.4896L24.2552 30.9948C22.5955 29.3351 19.9045 29.3351 18.2448 30.9948C16.5851 32.6545 16.5851 35.3455 18.2448 37.0052L26.7448 45.5052C28.4045 47.1649 31.0955 47.1649 32.7552 45.5052L49.7552 28.5052Z" fill="currentColor"/>
        </symbol>

        <symbol id="close" width="100%" height="100%" viewBox="0 0 16 16">
            <path d="M1 15L15 1M1 1L15 15" stroke="currentColor" stroke-width="2" stroke-linecap="round" stroke-linejoin="round"/>
        </symbol>

        <symbol id="arrow-left" width="100%" height="100%" viewBox="0 0 14 10">
            <path d="M1 5L0.646447 4.64645L0.292893 5L0.646447 5.35355L1 5ZM13 5.5C13.2761 5.5 13.5 5.27614 13.5 5C13.5 4.72386 13.2761 4.5 13 4.5V5.5ZM4.64645 0.646447L0.646447 4.64645L1.35355 5.35355L5.35355 1.35355L4.64645 0.646447ZM0.646447 5.35355L4.64645 9.35355L5.35355 8.64645L1.35355 4.64645L0.646447 5.35355ZM1 5.5H13V4.5H1V5.5Z" fill="currentColor"/>
        </symbol>

        <symbol id="arrow-right" width="100%" height="100%" viewBox="0 0 14 10">
            <path d="M13 5L13.3536 4.64645L13.7071 5L13.3536 5.35355L13 5ZM1 5.5C0.723858 5.5 0.5 5.27614 0.5 5C0.5 4.72386 0.723858 4.5 1 4.5V5.5ZM9.35355 0.646447L13.3536 4.64645L12.6464 5.35355L8.64645 1.35355L9.35355 0.646447ZM13.3536 5.35355L9.35355 9.35355L8.64645 8.64645L12.6464 4.64645L13.3536 5.35355ZM13 5.5H1V4.5H13V5.5Z" fill="currentColor"/>
        </symbol>

        <symbol id="arrow-prev" width="100%" height="100%" viewBox="0 0 6 10">
            <path fill-rule="evenodd" clip-rule="evenodd" d="M5.70711 0.292893C6.09763 0.683417 6.09763 1.31658 5.70711 1.70711L2.41421 5L5.70711 8.29289C6.09763 8.68342 6.09763 9.31658 5.70711 9.70711C5.31658 10.0976 4.68342 10.0976 4.29289 9.70711L0.292893 5.70711C-0.0976311 5.31658 -0.0976311 4.68342 0.292893 4.29289L4.29289 0.292893C4.68342 -0.0976311 5.31658 -0.0976311 5.70711 0.292893Z" fill="currentColor"/>
        </symbol>

        <symbol id="arrow-next" width="100%" height="100%" viewBox="0 0 6 10">
            <path fill-rule="evenodd" clip-rule="evenodd" d="M0.292893 0.292893C-0.0976315 0.683417 -0.0976315 1.31658 0.292893 1.70711L3.58579 5L0.292893 8.29289C-0.0976315 8.68342 -0.0976315 9.31658 0.292893 9.70711C0.683417 10.0976 1.31658 10.0976 1.70711 9.70711L5.70711 5.70711C6.09763 5.31658 6.09763 4.68342 5.70711 4.29289L1.70711 0.292893C1.31658 -0.0976311 0.683417 -0.0976311 0.292893 0.292893Z" fill="currentColor"/>
        </symbol>

        <symbol id="tg" width="100%" height="100%" viewBox="0 0 14 11">
            <path fill-rule="evenodd" clip-rule="evenodd" d="M0.892542 4.65806C4.39108 3.13869 6.72011 2.12911 7.88963 1.63932C11.2182 0.249896 11.9179 0.00999583 12.3678 0C12.4677 0 12.6876 0.0199918 12.8376 0.139942C12.9575 0.2399 12.9875 0.369846 13.0075 0.469804C13.0275 0.569763 13.0475 0.779675 13.0275 0.939608C12.8476 2.83882 12.0679 7.44689 11.6681 9.56601C11.4981 10.4656 11.1683 10.7655 10.8484 10.7955C10.1487 10.8555 9.61891 10.3357 8.94919 9.89587C7.88963 9.20616 7.29987 8.77634 6.2703 8.09662C5.0808 7.31695 5.85048 6.88713 6.53019 6.18742C6.71012 6.0075 9.77884 3.20866 9.83882 2.95877C9.84881 2.92878 9.84881 2.80883 9.77884 2.74885C9.70887 2.68888 9.60891 2.70887 9.52894 2.72886C9.41899 2.74885 7.73969 3.86839 4.47105 6.07747C3.99125 6.40733 3.56143 6.56726 3.17159 6.55727C2.74177 6.54727 1.92211 6.31736 1.30237 6.11745C0.552684 5.87755 -0.0470667 5.7476 0.0029125 5.32778C0.0329 5.10787 0.332775 4.88796 0.892542 4.65806Z" fill="currentColor"/>
        </symbol>

        <symbol id="wa" width="100%" height="100%" viewBox="0 0 18 18">
            <path fill-rule="evenodd" clip-rule="evenodd" d="M14.5823 2.49257C12.9777 0.886078 10.8438 0.000981261 8.57033 0C3.88579 0 0.0731041 3.81244 0.0712233 8.49846C0.0706509 9.99635 0.461929 11.4584 1.20572 12.7474L0 17.1515L4.50546 15.9696C5.74683 16.6467 7.14447 17.0036 8.56689 17.0041H8.57041C13.2545 17.0041 17.0675 13.1912 17.0694 8.50508C17.0702 6.23428 16.1869 4.09897 14.5823 2.49257ZM8.57041 15.5688H8.56755C7.3 15.5683 6.05675 15.2277 4.97221 14.5841L4.71422 14.4311L2.04061 15.1324L2.75423 12.5256L2.58627 12.2582C1.87919 11.1336 1.50566 9.83371 1.50623 8.49887C1.50779 4.60408 4.67669 1.43542 8.57327 1.43542C10.46 1.43608 12.2337 2.17178 13.5674 3.50711C14.9011 4.84236 15.6351 6.61713 15.6343 8.50467C15.6328 12.3998 12.4639 15.5688 8.57041 15.5688ZM12.4452 10.2781C12.2328 10.1718 11.1888 9.65806 10.9941 9.58717C10.7995 9.51643 10.6579 9.48094 10.5163 9.69355C10.3748 9.90616 9.96772 10.3844 9.84384 10.5262C9.71995 10.6679 9.59607 10.6857 9.38379 10.5793C9.17135 10.4731 8.48716 10.2488 7.67599 9.52526C7.04471 8.96218 6.61852 8.2668 6.49463 8.05411C6.37075 7.8415 6.48139 7.72661 6.58777 7.62072C6.68328 7.52554 6.80013 7.37262 6.90636 7.24866C7.01258 7.12469 7.0479 7.03605 7.11872 6.89434C7.18953 6.75263 7.15412 6.62858 7.10097 6.52236C7.0479 6.41598 6.62318 5.37069 6.44623 4.94547C6.27385 4.53146 6.09878 4.58748 5.96843 4.58094C5.84471 4.5748 5.703 4.57341 5.56137 4.57341C5.41983 4.57341 5.1898 4.62656 4.99511 4.83917C4.80049 5.05178 4.25188 5.56555 4.25188 6.61084C4.25188 7.65613 5.01277 8.66584 5.11899 8.80764C5.22513 8.94935 6.61647 11.0943 8.74671 12.0142C9.25328 12.2331 9.6489 12.3636 9.95734 12.4616C10.4661 12.6233 10.929 12.6004 11.2949 12.5458C11.7029 12.4847 12.5513 12.032 12.7283 11.536C12.9052 11.0398 12.9052 10.6146 12.8521 10.5261C12.7991 10.4376 12.6575 10.3844 12.4452 10.2781Z" fill="currentColor"/>
        </symbol>

        <symbol id="inst" width="100%" height="100%" viewBox="0 0 18 18">
            <path fill-rule="evenodd" clip-rule="evenodd" d="M5.59875 0.7995C6.4785 0.759 6.759 0.75 9 0.75C11.241 0.75 11.5215 0.75975 12.4005 0.7995C13.2795 0.83925 13.8795 0.9795 14.4045 1.18275C14.9542 1.3905 15.453 1.71525 15.8655 2.13525C16.2855 2.547 16.6095 3.045 16.8165 3.5955C17.0205 4.1205 17.16 4.7205 17.2005 5.598C17.241 6.47925 17.25 6.75975 17.25 9C17.25 11.241 17.2402 11.5215 17.2005 12.4012C17.1607 13.2787 17.0205 13.8787 16.8165 14.4037C16.6095 14.9543 16.285 15.4531 15.8655 15.8655C15.453 16.2855 14.9542 16.6095 14.4045 16.8165C13.8795 17.0205 13.2795 17.16 12.402 17.2005C11.5215 17.241 11.241 17.25 9 17.25C6.759 17.25 6.4785 17.2402 5.59875 17.2005C4.72125 17.1607 4.12125 17.0205 3.59625 16.8165C3.04569 16.6095 2.54687 16.2849 2.1345 15.8655C1.71478 15.4535 1.38999 14.9549 1.18275 14.4045C0.9795 13.8795 0.84 13.2795 0.7995 12.402C0.759 11.5207 0.75 11.2402 0.75 9C0.75 6.759 0.75975 6.4785 0.7995 5.5995C0.83925 4.7205 0.9795 4.1205 1.18275 3.5955C1.39029 3.04506 1.71534 2.54648 2.13525 2.1345C2.54703 1.71488 3.04535 1.39008 3.5955 1.18275C4.1205 0.9795 4.7205 0.84 5.598 0.7995H5.59875ZM12.3337 2.2845C11.4637 2.24475 11.2028 2.2365 9 2.2365C6.79725 2.2365 6.53625 2.24475 5.66625 2.2845C4.8615 2.32125 4.425 2.4555 4.134 2.56875C3.74925 2.71875 3.474 2.8965 3.18525 3.18525C2.91153 3.45154 2.70089 3.77571 2.56875 4.134C2.4555 4.425 2.32125 4.8615 2.2845 5.66625C2.24475 6.53625 2.2365 6.79725 2.2365 9C2.2365 11.2028 2.24475 11.4637 2.2845 12.3337C2.32125 13.1385 2.4555 13.575 2.56875 13.866C2.70075 14.2238 2.9115 14.5485 3.18525 14.8148C3.4515 15.0885 3.77625 15.2993 4.134 15.4313C4.425 15.5445 4.8615 15.6788 5.66625 15.7155C6.53625 15.7552 6.7965 15.7635 9 15.7635C11.2035 15.7635 11.4637 15.7552 12.3337 15.7155C13.1385 15.6788 13.575 15.5445 13.866 15.4313C14.2508 15.2813 14.526 15.1035 14.8148 14.8148C15.0885 14.5485 15.2993 14.2238 15.4313 13.866C15.5445 13.575 15.6788 13.1385 15.7155 12.3337C15.7552 11.4637 15.7635 11.2028 15.7635 9C15.7635 6.79725 15.7552 6.53625 15.7155 5.66625C15.6788 4.8615 15.5445 4.425 15.4313 4.134C15.2813 3.74925 15.1035 3.474 14.8148 3.18525C14.5484 2.91155 14.2243 2.70091 13.866 2.56875C13.575 2.4555 13.1385 2.32125 12.3337 2.2845ZM7.94625 11.5433C8.53474 11.7882 9.19003 11.8213 9.8002 11.6368C10.4104 11.4523 10.9375 11.0617 11.2917 10.5317C11.6459 10.0017 11.805 9.36515 11.742 8.73083C11.679 8.0965 11.3978 7.50373 10.9462 7.05375C10.6584 6.76611 10.3104 6.54586 9.92725 6.40886C9.54409 6.27186 9.13532 6.22152 8.73037 6.26146C8.32542 6.3014 7.93436 6.43063 7.58535 6.63985C7.23634 6.84906 6.93806 7.13306 6.71198 7.47139C6.4859 7.80972 6.33764 8.19397 6.27789 8.59647C6.21813 8.99897 6.24836 9.40972 6.3664 9.79914C6.48445 10.1886 6.68736 10.547 6.96054 10.8485C7.23372 11.1501 7.57037 11.3874 7.94625 11.5433ZM6.0015 6.0015C6.39527 5.60773 6.86274 5.29538 7.37722 5.08227C7.89171 4.86916 8.44313 4.75948 9 4.75948C9.55687 4.75948 10.1083 4.86916 10.6228 5.08227C11.1373 5.29538 11.6047 5.60773 11.9985 6.0015C12.3923 6.39527 12.7046 6.86274 12.9177 7.37722C13.1308 7.89171 13.2405 8.44313 13.2405 9C13.2405 9.55687 13.1308 10.1083 12.9177 10.6228C12.7046 11.1373 12.3923 11.6047 11.9985 11.9985C11.2032 12.7938 10.1247 13.2405 9 13.2405C7.87534 13.2405 6.79675 12.7938 6.0015 11.9985C5.20625 11.2032 4.75948 10.1247 4.75948 9C4.75948 7.87534 5.20625 6.79675 6.0015 6.0015ZM14.181 5.391C14.2786 5.29895 14.3567 5.18826 14.4107 5.06548C14.4648 4.9427 14.4936 4.81033 14.4956 4.6762C14.4975 4.54207 14.4725 4.40891 14.4221 4.28461C14.3717 4.1603 14.2968 4.04738 14.202 3.95253C14.1071 3.85768 13.9942 3.78282 13.8699 3.73239C13.7456 3.68196 13.6124 3.65698 13.4783 3.65894C13.3442 3.66089 13.2118 3.68974 13.089 3.74377C12.9662 3.7978 12.8555 3.87592 12.7635 3.9735C12.5845 4.16327 12.4865 4.41534 12.4903 4.6762C12.4941 4.93705 12.5994 5.18616 12.7839 5.37063C12.9683 5.55511 13.2174 5.66042 13.4783 5.66422C13.7392 5.66803 13.9912 5.57002 14.181 5.391Z" fill="currentColor"/>
        </symbol>

        <symbol id="phone" width="100%" height="100%" viewBox="0 0 16 17">
            <path d="M8.53333 4.81531C8.23893 4.81531 8 5.05424 8 5.34864C8 5.64304 8.23893 5.88197 8.53333 5.88197C9.70987 5.88197 10.6667 6.83877 10.6667 8.01531C10.6667 8.30971 10.9056 8.54864 11.2 8.54864C11.4944 8.54864 11.7333 8.30971 11.7333 8.01531C11.7333 6.25104 10.2976 4.81531 8.53333 4.81531Z" fill="currentColor"/>
            <path d="M8.53333 2.68201C8.23893 2.68201 8 2.92094 8 3.21534C8 3.50974 8.23893 3.74867 8.53333 3.74867C10.8864 3.74867 12.8 5.66227 12.8 8.01534C12.8 8.30974 13.0389 8.54867 13.3333 8.54867C13.6277 8.54867 13.8667 8.30974 13.8667 8.01534C13.8667 5.07454 11.4741 2.68201 8.53333 2.68201Z" fill="currentColor"/>
            <path d="M8.53333 0.548706C8.23893 0.548706 8 0.787639 8 1.08204C8 1.37644 8.23893 1.61537 8.53333 1.61537C12.0629 1.61537 14.9333 4.48577 14.9333 8.01537C14.9333 8.30977 15.1723 8.54871 15.4667 8.54871C15.7611 8.54871 16 8.30977 16 8.01537C16 3.89804 12.6496 0.548706 8.53333 0.548706Z" fill="currentColor"/>
            <path d="M14.4 12.2821C12.8512 12.2821 11.376 11.9451 10.016 11.2805C9.888 11.2165 9.7408 11.2091 9.60746 11.256C9.47307 11.3029 9.3632 11.4011 9.30133 11.528L8.46293 13.2635C6.29333 12.0528 4.49707 10.2576 3.28747 8.08801L5.02187 7.24748C5.14987 7.18561 5.24693 7.07574 5.29387 6.94134C5.33973 6.80801 5.3312 6.66081 5.26827 6.53281C4.60373 5.17281 4.26667 3.69761 4.26667 2.14881C4.26667 1.85441 4.02773 1.61548 3.73333 1.61548H0.533333C0.238933 1.61548 0 1.85441 0 2.14881C0 10.0891 6.45973 16.5488 14.4 16.5488C14.6944 16.5488 14.9333 16.3099 14.9333 16.0155V12.8155C14.9333 12.5211 14.6944 12.2821 14.4 12.2821Z" fill="currentColor"/>
        </symbol>

        <symbol id="calendar" width="100%" height="100%" viewBox="0 0 24 24">
            <path d="M2 9C2 7.11438 2 6.17157 2.58579 5.58579C3.17157 5 4.11438 5 6 5H18C19.8856 5 20.8284 5 21.4142 5.58579C22 6.17157 22 7.11438 22 9C22 9.4714 22 9.70711 21.8536 9.85355C21.7071 10 21.4714 10 21 10H3C2.5286 10 2.29289 10 2.14645 9.85355C2 9.70711 2 9.4714 2 9Z" fill="currentColor"/>
            <path fill-rule="evenodd" clip-rule="evenodd" d="M2 18C2 19.8856 2 20.8284 2.58579 21.4142C3.17157 22 4.11438 22 6 22H18C19.8856 22 20.8284 22 21.4142 21.4142C22 20.8284 22 19.8856 22 18V13C22 12.5286 22 12.2929 21.8536 12.1464C21.7071 12 21.4714 12 21 12H3C2.5286 12 2.29289 12 2.14645 12.1464C2 12.2929 2 12.5286 2 13V18ZM7 15C7 14.5286 7 14.2929 7.14645 14.1464C7.29289 14 7.52859 14 8 14H10C10.4714 14 10.7071 14 10.8536 14.1464C11 14.2929 11 14.5286 11 15C11 15.4714 11 15.7071 10.8536 15.8536C10.7071 16 10.4714 16 10 16H8C7.52859 16 7.29289 16 7.14645 15.8536C7 15.7071 7 15.4714 7 15ZM7.14645 18.1464C7 18.2929 7 18.5286 7 19C7 19.4714 7 19.7071 7.14645 19.8536C7.29289 20 7.52859 20 8 20H10C10.4714 20 10.7071 20 10.8536 19.8536C11 19.7071 11 19.4714 11 19C11 18.5286 11 18.2929 10.8536 18.1464C10.7071 18 10.4714 18 10 18H8C7.52859 18 7.29289 18 7.14645 18.1464ZM13 15C13 14.5286 13 14.2929 13.1464 14.1464C13.2929 14 13.5286 14 14 14H16C16.4714 14 16.7071 14 16.8536 14.1464C17 14.2929 17 14.5286 17 15C17 15.4714 17 15.7071 16.8536 15.8536C16.7071 16 16.4714 16 16 16H14C13.5286 16 13.2929 16 13.1464 15.8536C13 15.7071 13 15.4714 13 15ZM13.1464 18.1464C13 18.2929 13 18.5286 13 19C13 19.4714 13 19.7071 13.1464 19.8536C13.2929 20 13.5286 20 14 20H16C16.4714 20 16.7071 20 16.8536 19.8536C17 19.7071 17 19.4714 17 19C17 18.5286 17 18.2929 16.8536 18.1464C16.7071 18 16.4714 18 16 18H14C13.5286 18 13.2929 18 13.1464 18.1464Z" fill="currentColor"/>
            <path d="M7 3L7 6" stroke="currentColor" stroke-width="2" stroke-linecap="round"/>
            <path d="M17 3L17 6" stroke="currentColor" stroke-width="2" stroke-linecap="round"/>
        </symbol>

        <symbol id="room" width="100%" height="100%" viewBox="0 0 24 20">
            <path d="M1.2 1.20001C1.86375 1.20001 2.4 1.73626 2.4 2.40001V12H10.8V6.00001C10.8 5.33626 11.3363 4.80001 12 4.80001H20.4C22.3875 4.80001 24 6.41251 24 8.40001V16.8C24 17.4638 23.4638 18 22.8 18C22.1363 18 21.6 17.4638 21.6 16.8V15.6H2.4V16.8C2.4 17.4638 1.86375 18 1.2 18C0.53625 18 0 17.4638 0 16.8V2.40001C0 1.73626 0.53625 1.20001 1.2 1.20001ZM6.6 10.8C4.9425 10.8 3.6 9.45751 3.6 7.80001C3.6 6.14251 4.9425 4.80001 6.6 4.80001C8.2575 4.80001 9.6 6.14251 9.6 7.80001C9.6 9.45751 8.2575 10.8 6.6 10.8Z" fill="currentColor"/>
        </symbol>

        <symbol id="user" width="100%" height="100%" viewBox="0 0 14 18">
            <path d="M7 8.07274C9.2786 8.07274 11.1257 6.26559 11.1257 4.03637C11.1257 1.80715 9.2786 0 7 0C4.7214 0 2.87415 1.80715 2.87415 4.03637C2.87415 6.26559 4.7214 8.07274 7 8.07274Z" fill="currentColor"/>
            <path d="M11.7947 18C13.3558 18 14.471 16.3636 13.8019 14.9454C12.5753 12.4364 10.0107 10.6909 7.00001 10.6909C3.98931 10.6909 1.31316 12.4364 0.198085 14.9454C-0.470959 16.3636 0.644033 18 2.20514 18H11.7947Z" fill="currentColor"/>
        </symbol>

        <symbol id="geo" width="100%" height="100%" viewBox="0 0 18 21">
            <path fill-rule="evenodd" clip-rule="evenodd" d="M9.39433 19.9137C11.1296 19.0519 18 15.2331 18 8.7942C18 3.9373 13.9706 0 9 0C4.02944 0 0 3.9373 0 8.7942C0 15.2331 6.87043 19.0519 8.60567 19.9137C8.85545 20.0377 9.14455 20.0377 9.39433 19.9137ZM9.00001 12.5628C11.1303 12.5628 12.8572 10.8754 12.8572 8.79384C12.8572 6.71232 11.1303 5.0249 9.00001 5.0249C6.86977 5.0249 5.14287 6.71232 5.14287 8.79384C5.14287 10.8754 6.86977 12.5628 9.00001 12.5628Z" fill="currentColor"/>
        </symbol>

        <symbol id="mail" width="100%" height="100%" viewBox="0 0 20 16">
            <path fill-rule="evenodd" clip-rule="evenodd" d="M0.87868 0.87868C0 1.75736 0 3.17157 0 6V10C0 12.8284 0 14.2426 0.87868 15.1213C1.75736 16 3.17157 16 6 16H14C16.8284 16 18.2426 16 19.1213 15.1213C20 14.2426 20 12.8284 20 10V6C20 3.17157 20 1.75736 19.1213 0.87868C18.2426 0 16.8284 0 14 0H6C3.17157 0 1.75736 0 0.87868 0.87868ZM3.89878 3.74691C3.4433 3.43457 2.82086 3.55062 2.50852 4.00611C2.19619 4.46159 2.31224 5.08403 2.76772 5.39636L8.86886 9.58C9.55047 10.0474 10.4494 10.0474 11.131 9.58L17.2321 5.39636C17.6876 5.08403 17.8036 4.46159 17.4913 4.00611C17.179 3.55062 16.5565 3.43457 16.1011 3.74691L9.99992 7.93054L3.89878 3.74691Z" fill="currentColor"/>
        </symbol>

        <symbol id="bed" width="100%" height="100%" viewBox="0 0 24 24">
            <path d="M21 18V10C21 9.46957 20.7893 8.96086 20.4142 8.58579C20.0391 8.21071 19.5304 8 19 8H11V14M3 7V18V7ZM3 14H21H3Z" fill="rgba(0, 0, 0, 0)" stroke="currentColor" stroke-width="2" stroke-linecap="round" stroke-linejoin="round"/>
            <path d="M7 11C7.55228 11 8 10.5523 8 10C8 9.44772 7.55228 9 7 9C6.44772 9 6 9.44772 6 10C6 10.5523 6.44772 11 7 11Z" fill="rgba(0, 0, 0, 0)" stroke="currentColor" stroke-width="2" stroke-linecap="round" stroke-linejoin="round"/>
        </symbol>

        <symbol id="wi-fi" width="100%" height="100%" viewBox="0 0 24 24">
            <path d="M12 18H12.01" fill="rgba(0, 0, 0, 0)" stroke="currentColor" stroke-width="2" stroke-linecap="round" stroke-linejoin="round"/>
            <path d="M9.172 15.172C9.92211 14.4221 10.9393 14.0009 12 14.0009C13.0607 14.0009 14.0779 14.4221 14.828 15.172" fill="rgba(0, 0, 0, 0)" stroke="currentColor" stroke-width="2" stroke-linecap="round" stroke-linejoin="round"/>
            <path d="M6.34302 12.343C7.08589 11.6001 7.96782 11.0108 8.93846 10.6087C9.90909 10.2066 10.9494 9.99969 12 9.99969C13.0506 9.99969 14.0909 10.2066 15.0616 10.6087C16.0322 11.0108 16.9141 11.6001 17.657 12.343" fill="rgba(0, 0, 0, 0)" stroke="currentColor" stroke-width="2" stroke-linecap="round" stroke-linejoin="round"/>
            <path d="M3.51501 9.51501C8.20101 4.82801 15.799 4.82801 20.515 9.51501" fill="rgba(0, 0, 0, 0)" stroke="currentColor" stroke-width="2" stroke-linecap="round" stroke-linejoin="round"/>
        </symbol>

        <symbol id="tv" width="100%" height="100%" viewBox="0 0 24 24">
            <path d="M19 7H5C3.89543 7 3 7.89543 3 9V18C3 19.1046 3.89543 20 5 20H19C20.1046 20 21 19.1046 21 18V9C21 7.89543 20.1046 7 19 7Z" fill="rgba(0, 0, 0, 0)" stroke="currentColor" stroke-width="2" stroke-linecap="round" stroke-linejoin="round"/>
            <path d="M16 3L12 7L8 3" fill="rgba(0, 0, 0, 0)" stroke="currentColor" stroke-width="2" stroke-linecap="round" stroke-linejoin="round"/>
        </symbol>

        <symbol id="ripple" width="100%" height="100%" viewBox="0 0 24 24">
            <path d="M3 7C6 5 9 5 12 7C15 9 18 9 21 7" fill="rgba(0, 0, 0, 0)" stroke="currentColor" stroke-width="2" stroke-linecap="round" stroke-linejoin="round"/>
            <path d="M3 17C6 15 9 15 12 17C15 19 18 19 21 17" fill="rgba(0, 0, 0, 0)" stroke="currentColor" stroke-width="2" stroke-linecap="round" stroke-linejoin="round"/>
            <path d="M3 12C6 10 9 10 12 12C15 14 18 14 21 12" fill="rgba(0, 0, 0, 0)" stroke="currentColor" stroke-width="2" stroke-linecap="round" stroke-linejoin="round"/>
        </symbol>

        <symbol id="glass" width="100%" height="100%" viewBox="0 0 24 24">
            <path d="M8 21H16" fill="rgba(0, 0, 0, 0)" stroke="currentColor" stroke-width="2" stroke-linecap="round" stroke-linejoin="round"/>
            <path d="M12 15V21" fill="rgba(0, 0, 0, 0)" stroke="currentColor" stroke-width="2" stroke-linecap="round" stroke-linejoin="round"/>
            <path d="M17 3L18 10C18 13.012 15.314 15 12 15C8.686 15 6 13.012 6 10L7 3H17Z" fill="rgba(0, 0, 0, 0)" stroke="currentColor" stroke-width="2" stroke-linecap="round" stroke-linejoin="round"/>
            <path d="M6 9.99999C6.86555 9.35104 7.91819 9.00024 9 9.00024C10.0818 9.00024 11.1345 9.35104 12 9.99999C12.8655 10.649 13.9182 10.9997 15 10.9997C16.0818 10.9997 17.1345 10.649 18 9.99999" fill="rgba(0, 0, 0, 0)" stroke="currentColor" stroke-width="2" stroke-linecap="round" stroke-linejoin="round"/>
        </symbol>

    </defs>
</svg>