<?xml version="1.0" standalone="no"?>
<!DOCTYPE svg PUBLIC "-//W3C//DTD SVG 20010904//EN"
 "http://www.w3.org/TR/2001/REC-SVG-20010904/DTD/svg10.dtd">
<svg version="1.0" xmlns="http://www.w3.org/2000/svg"
 width="260.000000pt" height="260.000000pt" viewBox="0 0 260.000000 260.000000"
 preserveAspectRatio="xMidYMid meet">
<metadata>
Created by potrace 1.14, written by Peter Selinger 2001-2017
</metadata>
<g transform="translate(0.000000,260.000000) scale(0.100000,-0.100000)"
fill="#000000" stroke="none">
<path d="M2314 2292 c-17 -15 -66 -54 -108 -87 -112 -87 -116 -91 -108 -100 4
-5 2 -5 -4 -2 -9 5 -106 -66 -167 -123 -9 -8 -32 -26 -51 -40 -20 -14 -36 -29
-36 -33 0 -5 4 -6 9 -2 6 3 15 -3 20 -14 8 -15 7 -23 -5 -36 -21 -20 -10 -32
13 -14 14 12 16 12 8 0 -6 -11 -4 -13 9 -8 9 4 15 3 11 -3 -3 -5 -31 -7 -63
-5 -42 3 -52 2 -39 -6 9 -6 15 -14 12 -19 -3 -4 2 -10 10 -13 9 -4 12 -1 8 9
-3 7 0 14 7 14 6 0 9 -4 6 -9 -3 -5 2 -15 11 -22 14 -12 15 -11 9 9 -5 14 -3
22 4 22 6 0 9 -4 6 -8 -2 -4 -1 -14 4 -22 5 -9 5 -19 -2 -27 -7 -9 -7 -13 0
-13 6 0 15 7 20 16 6 11 16 14 31 9 l23 -7 -21 -15 c-12 -8 -21 -19 -21 -24 0
-6 10 -3 22 5 12 9 27 16 33 16 5 0 4 -4 -4 -9 -8 -5 -9 -11 -3 -15 6 -3 18 4
26 16 9 12 19 18 23 14 4 -4 0 -12 -10 -17 -19 -11 -51 -68 -43 -76 3 -3 13 8
23 26 10 17 24 29 31 26 6 -2 12 3 13 13 0 11 2 12 6 4 6 -17 -16 -44 -30 -35
-6 4 -8 0 -4 -11 4 -10 3 -15 -3 -11 -12 8 -13 -5 -1 -24 7 -11 10 -9 16 8 3
11 11 21 16 21 6 0 3 -10 -5 -22 -10 -14 -12 -27 -6 -38 5 -10 6 -20 3 -24 -3
-3 -2 -6 3 -6 6 0 20 14 33 30 18 25 25 29 42 20 15 -8 17 -15 9 -29 -5 -10
-6 -22 -2 -27 4 -5 -2 -2 -13 6 -30 21 -32 24 -13 17 9 -3 19 0 22 8 9 25 -19
22 -41 -4 -26 -29 -31 -50 -8 -31 9 7 18 10 22 6 3 -3 0 -6 -7 -6 -21 0 -2
-14 22 -15 13 -1 23 5 26 17 4 16 7 17 14 6 7 -9 8 -4 4 14 -3 15 -2 30 4 33
5 3 7 0 4 -8 -3 -8 -1 -18 5 -22 6 -3 14 1 17 9 3 9 12 16 19 16 7 0 26 15 43
34 17 19 32 33 34 31 2 -2 25 15 51 38 l48 42 -3 277 -3 276 -31 -26z m-267
-307 c0 -8 -4 -12 -9 -9 -5 3 -6 10 -3 15 9 13 12 11 12 -6z m-159 -55 c-7
-10 -14 -17 -17 -15 -4 4 18 35 25 35 2 0 -1 -9 -8 -20z m114 -5 c3 0 9 -3 13
-7 4 -3 0 -5 -9 -4 -9 1 -22 8 -29 16 -10 10 -9 11 3 4 8 -5 18 -9 22 -9z
m-35 -15 c10 -13 8 -16 -10 -17 -12 0 -17 1 -10 4 7 2 9 12 6 21 -6 18 -5 17
14 -8z m77 4 c3 -8 2 -12 -4 -9 -6 3 -10 10 -10 16 0 14 7 11 14 -7z m-119
-14 c3 -5 1 -10 -4 -10 -6 0 -11 5 -11 10 0 6 2 10 4 10 3 0 8 -4 11 -10z
m189 2 c3 -5 -1 -9 -9 -9 -8 0 -12 4 -9 9 3 4 7 8 9 8 2 0 6 -4 9 -8z m-211
-35 c-3 -5 5 -6 18 -3 21 6 22 6 6 -4 -21 -14 -30 -8 -34 23 -2 17 -1 19 6 7
5 -8 7 -18 4 -23z m137 18 c0 -2 -6 -8 -13 -14 -10 -8 -14 -7 -14 2 0 8 6 14
14 14 7 0 13 -1 13 -2z m-47 -46 c-8 -8 -13 -7 -18 2 -6 8 -4 10 5 4 10 -6 12
-4 6 11 -6 15 -5 17 5 7 9 -10 10 -16 2 -24z m-45 -6 c-2 -10 -10 -17 -17 -15
-8 2 -11 -5 -6 -20 5 -20 4 -21 -5 -5 -13 20 -4 41 12 31 7 -5 9 -1 5 9 -3 10
-2 17 4 17 6 0 9 -8 7 -17z m114 6 c2 -2 1 -3 -1 -2 -2 2 -9 -2 -16 -7 -8 -7
-12 -5 -12 4 0 12 22 16 29 5z m-49 -24 c-3 -9 -8 -14 -10 -11 -3 3 -2 9 2 15
9 16 15 13 8 -4z m72 -2 c-1 -10 1 -23 6 -29 5 -6 4 -11 -5 -11 -10 0 -15 35
-7 55 4 10 9 -1 6 -15z m120 -2 c3 -5 2 -12 -3 -15 -5 -3 -9 1 -9 9 0 17 3 19
12 6z m-301 -16 c3 -8 1 -15 -4 -15 -6 0 -10 7 -10 15 0 8 2 15 4 15 2 0 6 -7
10 -15z m66 11 c0 -2 -7 -7 -16 -10 -8 -3 -12 -2 -9 4 6 10 25 14 25 6z m74
-4 c3 -5 -1 -9 -9 -9 -8 0 -12 4 -9 9 3 4 7 8 9 8 2 0 6 -4 9 -8z m81 -1 c3
-5 2 -12 -3 -15 -5 -3 -9 1 -9 9 0 17 3 19 12 6z m-137 -13 c-2 -6 -15 -13
-29 -15 -18 -2 -20 -1 -9 6 8 5 18 7 22 5 4 -3 8 0 8 5 0 6 3 11 6 11 3 0 4
-5 2 -12z m13 -21 c-10 -9 -11 -8 -5 6 3 10 9 15 12 12 3 -3 0 -11 -7 -18z
m149 -3 c0 -8 -19 -13 -24 -6 -3 5 1 9 9 9 8 0 15 -2 15 -3z m-72 -52 c9 9 15
9 25 -1 10 -10 8 -11 -7 -5 -13 5 -17 4 -13 -3 4 -7 0 -10 -9 -9 -16 3 -34 24
-33 41 0 6 5 0 12 -13 10 -17 15 -20 25 -10z m68 13 c-1 -8 -5 -17 -8 -21 -5
-4 -4 16 1 34 3 9 9 -1 7 -13z m84 -25 c0 -5 -5 -10 -11 -10 -5 0 -7 5 -4 10
3 6 8 10 11 10 2 0 4 -4 4 -10z m-180 -25 c0 -8 -2 -15 -4 -15 -2 0 -6 7 -10
15 -3 8 -1 15 4 15 6 0 10 -7 10 -15z m60 5 c0 -5 -5 -10 -11 -10 -5 0 -7 5
-4 10 3 6 8 10 11 10 2 0 4 -4 4 -10z m90 6 c0 -2 -8 -10 -17 -17 -16 -13 -17
-12 -4 4 13 16 21 21 21 13z m-107 -33 c-7 -2 -19 -2 -25 0 -7 3 -2 5 12 5 14
0 19 -2 13 -5z m32 -2 c3 -5 2 -12 -3 -15 -5 -3 -9 1 -9 9 0 17 3 19 12 6z
m-75 -7 c0 -3 -7 -12 -15 -20 -16 -17 -18 -14 -9 10 6 15 24 23 24 10z m144
-6 c-3 -4 -9 -8 -15 -8 -5 0 -9 4 -9 8 0 5 7 9 15 9 8 0 12 -4 9 -9z"/>
<path d="M240 1979 l0 -263 54 -50 c30 -28 122 -116 206 -196 84 -80 172 -163
195 -185 86 -82 362 -344 430 -409 l70 -66 290 0 290 0 -86 83 c-137 131 -401
382 -439 417 -19 18 -67 62 -105 99 -68 64 -283 263 -336 312 -14 13 -79 74
-144 134 -159 148 -166 154 -295 275 -61 58 -116 107 -121 108 -5 2 -9 -108
-9 -259z"/>
<path d="M1785 1866 c-22 -21 -39 -43 -37 -48 2 -6 -3 -8 -11 -5 -7 3 -24 -4
-38 -14 -13 -11 -17 -17 -9 -14 11 4 16 -1 17 -14 2 -18 -1 -19 -17 -8 -15 9
-22 9 -32 -1 -10 -10 -8 -12 11 -10 13 2 25 -2 28 -7 4 -12 -36 -14 -53 -3 -6
4 -11 1 -11 -7 0 -8 2 -13 5 -10 2 2 11 -3 19 -11 9 -8 22 -13 30 -9 10 3 13
1 10 -9 -4 -11 -1 -13 10 -9 12 5 14 3 8 -8 -8 -12 -6 -12 8 0 12 9 17 10 17
2 0 -6 -7 -14 -15 -17 -8 -4 -15 -13 -15 -21 0 -11 6 -8 20 8 10 13 19 19 20
12 0 -6 -4 -15 -10 -18 -14 -9 -12 -27 3 -22 6 2 12 9 12 14 0 19 12 25 18 10
7 -18 -39 -61 -47 -44 -3 9 -5 9 -5 0 -1 -18 41 -45 53 -33 6 6 4 15 -4 25
-17 20 -7 19 29 -3 l30 -18 -26 -33 c-25 -31 -27 -32 -40 -15 -7 10 -13 13
-13 7 0 -6 7 -16 15 -23 16 -14 10 -34 -7 -24 -7 4 -8 2 -4 -4 5 -8 18 -5 43
13 20 13 41 21 46 18 5 -3 -1 -11 -13 -18 -16 -9 -19 -14 -9 -17 8 -3 14 -13
14 -23 0 -10 6 -19 13 -21 7 -1 8 0 2 3 -5 2 -10 9 -10 14 0 6 5 7 10 4 17
-11 11 7 -7 21 -17 12 -17 13 -1 14 20 0 34 -19 30 -41 -6 -34 58 -34 86 -1
11 12 22 18 26 14 4 -4 6 -2 4 3 -2 6 1 10 5 10 5 0 13 8 18 18 6 9 14 15 19
12 12 -7 33 32 25 45 -4 6 -10 8 -14 5 -5 -2 -16 4 -26 15 -10 11 -15 20 -11
20 4 0 -1 14 -11 30 -10 17 -23 28 -30 26 -18 -7 -25 11 -13 34 14 27 4 43
-19 30 -30 -15 -44 9 -18 31 12 10 17 18 11 19 -6 0 -17 -7 -25 -16 -7 -8 -20
-13 -29 -11 -11 3 -16 -3 -16 -20 0 -13 5 -22 11 -19 5 2 9 8 8 14 -4 17 25 3
31 -15 5 -12 9 -13 21 -3 9 7 18 10 22 6 3 -3 1 -6 -6 -6 -7 0 -9 -5 -5 -12 4
-7 3 -8 -4 -4 -6 4 -16 -4 -23 -16 -11 -21 -11 -22 4 -9 15 12 21 9 19 -9 0
-3 9 -7 20 -7 26 -2 30 -7 22 -27 -4 -11 -13 -15 -23 -11 -12 5 -13 3 -5 -5 9
-9 17 -9 34 0 21 11 21 11 6 -19 -22 -41 -19 -51 4 -22 11 13 20 19 20 14 0
-6 10 -15 23 -22 l22 -11 -22 6 c-19 4 -22 2 -17 -13 4 -13 3 -15 -4 -4 -6 8
-12 9 -16 3 -3 -6 -1 -12 6 -14 7 -3 5 -7 -6 -11 -10 -4 -15 -3 -11 3 4 6 1 9
-7 8 -7 -2 -12 3 -11 10 2 6 -2 12 -8 12 -5 0 -8 4 -4 9 3 5 1 12 -5 16 -6 4
-7 11 -4 17 4 6 3 8 -3 5 -6 -4 -19 0 -29 8 -18 13 -18 14 -1 20 22 9 22 20
-1 22 -20 2 -26 -24 -10 -44 7 -8 4 -11 -10 -10 -20 1 -28 37 -8 37 5 0 6 3 3
6 -3 4 -2 16 4 27 9 15 8 18 -2 12 -8 -5 -10 -4 -5 3 13 22 -5 34 -21 15 -8
-10 -11 -12 -7 -4 5 10 3 12 -6 6 -9 -6 -11 -4 -5 5 5 8 4 11 -3 6 -6 -3 -14
-1 -18 5 -5 8 -2 10 7 5 8 -4 6 -1 -3 7 -10 8 -15 17 -11 20 3 4 -4 5 -15 2
-28 -5 -36 9 -15 26 14 12 16 12 9 -1 -4 -8 0 -6 8 4 9 11 16 15 16 8 0 -6 8
-9 18 -6 14 5 15 4 2 -5 -8 -6 -10 -11 -4 -11 5 0 19 7 30 16 10 8 14 13 7 10
-6 -4 -14 -2 -18 4 -4 6 -11 8 -16 4 -13 -8 -40 16 -32 29 3 5 1 7 -4 4 -6 -4
-13 0 -17 8 -3 9 -12 12 -23 8 -10 -3 -15 -3 -12 1 4 4 16 8 28 11 11 2 26 7
31 10 6 3 10 1 10 -6 0 -7 11 -2 24 10 23 22 26 58 4 45 -6 -4 -13 -3 -17 2
-3 5 -24 -8 -46 -30z m48 4 c3 -11 1 -18 -4 -14 -5 3 -9 12 -9 20 0 20 7 17
13 -6z m-23 -9 c0 -5 -7 -12 -16 -15 -14 -5 -15 -4 -4 9 14 17 20 19 20 6z
m-60 -60 c0 11 2 11 10 -1 6 -10 10 -11 10 -2 0 8 6 6 18 -5 17 -17 17 -19 -4
-35 -12 -10 -26 -18 -31 -18 -4 0 -2 4 6 9 9 6 10 11 2 15 -6 4 -11 2 -11 -4
0 -6 -4 -9 -9 -5 -11 6 -36 -33 -27 -43 3 -3 6 0 6 7 0 7 4 10 10 6 5 -3 6
-13 3 -21 -5 -14 -7 -14 -21 0 -13 13 -13 18 2 40 9 14 12 26 7 26 -8 0 -8 8
-2 39 1 2 8 -2 16 -9 12 -10 15 -10 15 1z m45 -91 c3 0 18 -14 32 -30 19 -23
28 -28 38 -20 11 9 12 5 9 -17 -10 -61 -9 -78 4 -75 6 1 12 -3 12 -9 0 -8 5
-8 15 1 12 10 18 10 30 0 8 -7 13 -16 10 -20 -3 -4 4 -18 14 -32 19 -23 19
-24 -3 -48 -24 -29 -71 -34 -71 -9 0 9 -12 31 -27 50 -25 33 -26 33 -45 17
-11 -10 -24 -18 -29 -18 -5 1 7 15 26 32 19 17 28 27 20 24 -9 -5 -8 -2 3 7
18 15 24 32 7 22 -5 -3 -10 1 -10 11 0 13 3 14 13 5 10 -8 14 -7 14 4 0 8 -4
12 -9 9 -5 -4 -12 3 -15 14 -3 12 -13 20 -23 19 -10 -1 -16 -5 -14 -9 3 -5 8
-6 12 -4 4 2 8 -7 8 -20 2 -20 -1 -22 -17 -13 -15 7 -18 17 -14 40 3 17 2 28
-3 25 -13 -8 -31 8 -35 32 -2 12 -6 25 -10 28 -19 20 -3 23 22 5 16 -12 32
-21 36 -21z m-105 10 c0 -5 -4 -10 -10 -10 -5 0 -10 5 -10 10 0 6 5 10 10 10
6 0 10 -4 10 -10z m80 -140 c0 -5 -7 -7 -15 -4 -8 4 -12 10 -9 15 6 11 24 2
24 -11z"/>
<path d="M1726 1786 c4 -10 13 -15 20 -12 7 3 16 1 19 -5 4 -5 11 -7 16 -3 14
8 1 23 -19 19 -9 -1 -23 2 -30 8 -9 7 -11 6 -6 -7z"/>
<path d="M1757 1713 c-3 -5 1 -17 9 -28 8 -10 14 -14 14 -7 0 6 7 9 15 6 8 -4
12 -11 8 -17 -3 -5 -1 -7 5 -3 6 3 18 -4 27 -16 10 -13 15 -17 13 -9 -6 20
-85 84 -91 74z"/>
<path d="M1855 1543 c1 -15 10 -32 19 -38 8 -7 13 -15 9 -18 -3 -4 2 -9 11
-13 14 -5 14 -9 4 -23 -9 -11 -6 -10 9 3 13 10 20 23 16 29 -3 6 -1 7 5 3 6
-4 8 -14 5 -23 -4 -11 -3 -14 5 -9 7 4 12 14 12 22 0 10 5 12 12 8 7 -5 3 5
-10 20 -12 16 -19 32 -17 36 9 14 -15 23 -29 11 -9 -7 -18 -6 -33 4 -20 14
-21 13 -18 -12z m53 -4 c2 6 9 11 15 11 5 0 7 -3 4 -7 -4 -3 0 -17 8 -30 9
-13 11 -23 6 -23 -11 0 -32 25 -26 31 2 3 -5 5 -16 5 -19 0 -19 -1 -3 -13 22
-16 28 -44 8 -36 -8 3 -12 9 -9 13 3 5 -1 12 -8 17 -7 4 -16 16 -20 26 -6 15
-4 16 15 6 17 -9 23 -9 26 0z"/>
<path d="M1805 1740 c-4 -6 -2 -9 4 -8 5 2 16 -5 24 -16 10 -14 14 -15 14 -4
0 20 -34 41 -42 28z"/>
<path d="M1615 1700 c-3 -5 -3 -10 1 -10 4 0 -1 -7 -12 -16 -18 -14 -18 -15 4
-4 12 6 20 15 17 21 -11 16 5 10 41 -17 19 -15 34 -22 34 -18 0 8 -63 54 -74
54 -3 0 -8 -4 -11 -10z"/>
<path d="M1555 1689 c-4 -6 -5 -12 -2 -15 2 -3 7 2 10 11 7 17 1 20 -8 4z"/>
<path d="M1880 1696 c0 -2 8 -10 18 -17 15 -13 16 -12 3 4 -13 16 -21 21 -21
13z"/>
<path d="M1630 1660 c0 -5 5 -10 10 -10 6 0 10 5 10 10 0 6 -4 10 -10 10 -5 0
-10 -4 -10 -10z"/>
<path d="M1573 1645 c0 -7 7 -11 15 -7 11 4 13 1 7 -8 -5 -9 -4 -11 3 -6 16
10 15 14 -6 25 -14 7 -19 6 -19 -4z"/>
<path d="M1659 1643 c-1 -5 -1 -12 0 -17 1 -5 -5 -6 -14 -2 -11 4 -14 2 -9 -6
5 -7 2 -9 -9 -5 -10 4 -14 2 -11 -7 3 -7 11 -13 19 -13 8 0 12 4 10 8 -3 4 2
10 11 13 8 3 12 11 8 17 -4 8 1 9 17 4 19 -5 21 -4 9 4 -18 13 -30 14 -31 4z"/>
<path d="M1928 1609 c-14 -14 -14 -18 -2 -23 7 -3 13 0 11 6 -1 7 3 12 10 13
18 0 25 12 11 17 -7 3 -21 -3 -30 -13z"/>
<path d="M1699 1608 c-1 -7 -1 -17 0 -21 1 -5 -9 -6 -21 -3 -13 3 -17 3 -10 0
6 -3 9 -10 6 -16 -4 -7 0 -7 13 0 10 6 19 20 20 31 2 22 -6 30 -8 9z"/>
<path d="M1790 1565 c0 -8 -4 -15 -10 -15 -5 0 -10 -5 -10 -11 0 -14 18 -2 30
22 7 13 7 19 0 19 -5 0 -10 -7 -10 -15z"/>
<path d="M1961 1571 c-8 -5 -9 -11 -3 -15 5 -3 12 1 16 9 6 17 6 18 -13 6z"/>
<path d="M1590 1566 c0 -2 7 -7 16 -10 8 -3 12 -2 9 4 -6 10 -25 14 -25 6z"/>
<path d="M1710 1562 c0 -4 10 -9 22 -9 18 -2 20 0 8 7 -18 12 -30 13 -30 2z"/>
<path d="M1535 1540 c3 -5 8 -10 11 -10 2 0 4 5 4 10 0 6 -5 10 -11 10 -5 0
-7 -4 -4 -10z"/>
<path d="M1682 1538 c-16 -16 -15 -25 2 -25 8 0 12 6 8 15 -4 11 -1 13 8 7 9
-5 11 -4 6 3 -9 15 -9 15 -24 0z"/>
<path d="M1984 1528 l-19 -23 23 19 c12 11 22 21 22 23 0 8 -8 2 -26 -19z"/>
<path d="M1610 1536 c0 -2 8 -10 18 -17 15 -13 16 -12 3 4 -13 16 -21 21 -21
13z"/>
<path d="M1721 1533 c-1 -6 -4 -20 -7 -30 -5 -17 -5 -17 6 0 6 10 9 23 6 30
-3 9 -5 9 -5 0z"/>
<path d="M1587 1519 c7 -7 15 -10 18 -7 3 3 -2 9 -12 12 -14 6 -15 5 -6 -5z"/>
<path d="M1730 1490 c-6 -11 -8 -20 -6 -20 3 0 10 9 16 20 6 11 8 20 6 20 -3
0 -10 -9 -16 -20z"/>
<path d="M1669 1463 c-13 -16 -12 -17 4 -4 9 7 17 15 17 17 0 8 -8 3 -21 -13z"/>
<path d="M1554 1462 c4 -3 14 -7 22 -8 9 -1 13 0 10 4 -4 3 -14 7 -22 8 -9 1
-13 0 -10 -4z"/>
<path d="M1777 1463 c-3 -5 0 -17 4 -28 9 -19 9 -19 5 2 -3 16 2 23 18 26 l21
4 -22 2 c-12 0 -24 -2 -26 -6z"/>
<path d="M1635 1451 c-3 -5 -2 -12 3 -15 5 -3 9 1 9 9 0 17 -3 19 -12 6z"/>
<path d="M1686 1445 c-11 -8 -15 -15 -9 -15 6 0 16 7 23 15 16 19 11 19 -14 0z"/>
<path d="M1734 1439 c-5 -8 -3 -9 6 -4 9 6 12 4 8 -7 -4 -9 0 -15 8 -15 18 0
18 11 0 26 -11 9 -16 9 -22 0z"/>
<path d="M1810 1410 c-7 -14 -7 -20 0 -20 5 0 10 7 10 15 0 9 6 12 15 9 8 -4
15 -4 15 -1 0 16 -31 13 -40 -3z"/>
<path d="M1675 1411 c-3 -5 -2 -12 3 -15 5 -3 9 1 9 9 0 17 -3 19 -12 6z"/>
<path d="M1856 1404 c-8 -21 -8 -21 12 -29 13 -5 14 -3 5 6 -6 6 -9 18 -6 25
3 8 3 14 0 14 -3 0 -8 -7 -11 -16z"/>
<path d="M1734 1360 c0 -13 4 -16 10 -10 7 7 7 13 0 20 -6 6 -10 3 -10 -10z"/>
<path d="M1766 1362 c-3 -5 1 -9 9 -9 8 0 15 4 15 9 0 4 -4 8 -9 8 -6 0 -12
-4 -15 -8z"/>
<path d="M1825 1360 c-3 -6 1 -7 9 -4 18 7 21 14 7 14 -6 0 -13 -4 -16 -10z"/>
<path d="M1775 1329 c-4 -6 -5 -12 -2 -15 2 -3 7 2 10 11 7 17 1 20 -8 4z"/>
<path d="M240 500 l0 -220 1055 0 1055 0 0 220 0 220 -1055 0 -1055 0 0 -220z"/>
</g>
</svg>
